<?xml version="1.0" standalone="no"?><!DOCTYPE svg PUBLIC "-//W3C//DTD SVG 1.1//EN" "http://www.w3.org/Graphics/SVG/1.1/DTD/svg11.dtd"><svg t="1606188296676" class="icon" viewBox="0 0 1418 1024" version="1.1" xmlns="http://www.w3.org/2000/svg" p-id="1337" width="66.46875" height="48" xmlns:xlink="http://www.w3.org/1999/xlink"><defs><style type="text/css"></style></defs><path d="M992.31486 204.125206h3.852999c6.617108 0.418804 13.234215 1.088891 19.767562 1.926499h2.345304q9.548738 1.340174 18.846193 3.266674l2.01026 0.418804c6.198303 1.256413 12.229085 2.764108 18.259867 4.439325l5.025651 1.507696c5.695738 1.675217 11.223955 3.434195 16.752171 5.444456l1.758978 0.586326c6.030782 2.177782 11.894042 4.690608 17.673541 7.203433l4.523086 2.094022c5.611977 2.596587 11.140194 5.276934 16.752171 8.376085L1032.185027 192.649969c-3.517956-1.9265-7.119673-3.769239-10.80515-5.611978l-5.695739-2.596586-4.606847-2.094022c-5.779499-2.596587-11.642759-5.025651-17.589779-7.203433l-1.842739-0.670087c-5.528216-1.9265-11.056433-3.769239-16.752171-5.444456l-5.109413-1.423934-4.690607-1.340174c-4.439325-1.172652-8.962412-2.177782-13.485498-3.182913h-2.010261c-6.198303-1.340174-12.564128-2.345304-18.929953-3.266673h-2.345304c-6.533347-0.921369-13.150454-1.507695-19.767562-2.010261h-3.769239c-6.617108-0.418804-13.317976-0.586326-20.102605-0.586326h-3.350434c-7.119673 0-14.239346 0-21.442779 0.92137l87.530094 47.576166c7.203434-0.586326 14.323106-0.837609 21.359018-0.921369h3.434195c6.784629-1.256413 13.485498-1.088891 20.102606-0.670087zM695.80143 47.576166h3.601717c6.449586 0 12.899172 0.502565 19.264996 1.00513h3.182913q10.302585 1.00513 20.353888 2.764109l4.355565 0.753847c6.784629 1.256413 13.485498 2.680347 20.018844 4.439326h1.00513c6.365825 1.675217 12.564128 3.601717 18.678671 5.695738l4.104282 1.340174c6.198303 2.261543 12.312846 4.606847 18.259867 7.287194l3.182912 1.423935c6.114542 2.764108 12.145324 5.695738 18.008584 8.87865l-87.530094-46.906079c-3.350434-1.842739-6.700868-3.601717-10.135064-5.276934L724.280121 25.128257l-3.182913-1.507696c-5.947021-2.596587-12.061563-5.025651-18.259866-7.203433l-4.020521-1.340174c-6.198303-2.094021-12.396607-4.104282-18.762432-5.779499h-0.921369c-6.784629-1.758978-13.401737-3.099152-20.102606-4.355565L654.67485 4.188043Q644.95859 2.429065 634.320962 1.423935h-3.182913c-6.365825-0.837609-12.73165-1.423935-19.264997-1.423935h-3.601717c-7.035912 0-14.155585 0-21.359018 0.502565h-4.606847c-7.454716 0.502565-14.909432 1.256413-22.447909 2.261543S544.445563 5.695738 536.488282 7.370955l-5.025651 1.088891c-7.454716 1.675217-14.909432 3.601717-22.280388 5.86326l-3.685478 1.172652c-6.700868 2.010261-13.317976 4.355565-19.851323 6.78463l-3.769238 1.423934c-7.203434 2.764108-14.239346 5.86326-21.191497 9.046173l-1.926499 0.837608-5.025652 2.512826-6.617107 3.266673-7.78976 4.188043-6.449586 3.517956-7.789759 4.606847c-2.010261 1.256413-4.104282 2.429065-6.114543 3.769239s-5.193173 3.350434-7.789759 5.025651l-5.86326 3.852999-1.172652 0.837609L402.052108 67.008685q-8.376086 5.779499-16.752171 12.061563l-3.685478 2.847869c-5.947021 4.774369-11.72652 9.632498-17.338497 14.65815l-1.340173 1.088891-2.429065 2.345304c-4.271804 3.93676-8.376086 7.87352-12.564129 11.977802l-3.685477 3.685478q-7.454716 7.538477-14.574389 15.579519l-0.670087 0.753848c-0.753848 0.753848-1.340174 1.591456-2.010261 2.345304a341.744292 341.744292 0 0 0-11.223954 13.485498l-3.685478 4.606847c-4.271804 5.528216-8.376086 11.056433-12.480367 16.752171-4.355565 6.114542-8.376086 12.396607-12.396607 18.762432-1.00513 1.591456-2.010261 3.182913-2.93163 4.858129-3.769239 6.198303-7.454716 12.480368-10.972672 18.929954v0.502565c-4.188043 7.87352-8.376086 15.914563-11.894042 24.123126l-1.758978 4.020521c-3.434195 7.87352-6.700868 15.747041-9.716259 23.788083l-0.837609 2.261544c0 0.837609-0.586326 1.675217-0.837608 2.512825-2.764108 7.705999-5.360695 15.411997-7.705999 23.285518 0 0.753848-0.418804 1.591456-0.670087 2.429065-2.094021 7.370955-4.020521 14.825671-5.695738 22.364149l-1.00513 4.355564c-1.675217 8.376086-3.099152 15.914563-4.271804 23.955605l-0.753848 4.94189c-1.088891 8.376086-2.094021 16.752171-2.680347 25.128257l-8.376086 3.93676-1.507695 0.753848-9.464977 4.690608-3.601716 1.842739c-4.271804 2.177782-8.376086 4.523086-12.731651 6.952151l-2.429064 1.423934-10.051303 6.114543-4.271804 2.764108c-2.680347 1.675217-5.276934 3.434195-7.87352 5.193173a15.747041 15.747041 0 0 0-1.9265 1.340174l-1.591456 1.088891c-5.947021 4.188043-11.810281 8.376086-17.506019 12.982933a26.049626 26.049626 0 0 0-2.345304 1.926499c-5.86326 4.606847-11.558998 9.381216-16.752171 14.406868h-0.502565l-1.172652 1.172652c-4.690608 4.271804-9.297455 8.376086-13.820542 13.150454l-1.758977 1.758978c-4.606847 4.690608-9.046172 9.464977-13.485498 14.406867l-1.340174 1.423935-1.256413 1.507695c-4.104282 4.774369-8.376086 9.548738-12.145324 14.490628-0.586326 0.753848-1.088891 1.591456-1.675217 2.261543-3.685478 4.690608-7.203434 9.464977-10.637629 14.323107l-1.172652 1.507695a4.690608 4.690608 0 0 1 0 0.670087c-3.769239 5.360695-7.370955 10.888911-10.80515 16.752171l-3.266673 3.434195c-3.350434 5.528216-6.617108 11.140194-9.71626 16.752171l-0.502565 0.837609-0.753848 1.507695c-3.685478 6.86839-7.119673 13.820541-10.302585 20.940214a22.782953 22.782953 0 0 0-0.921369 2.094022c-3.266673 7.203434-6.198303 14.490628-8.962412 21.861583v0.586326c0 1.256413-0.837609 2.596587-1.340174 3.852999l-2.847869 8.376086c-0.502565 1.758978-1.088891 3.517956-1.591456 5.276934s-1.591456 5.276934-2.345304 8.376085-1.00513 3.685478-1.507695 5.611978l-2.010261 7.705999-1.507695 5.109412c-0.586326 2.596587-1.172652 5.193173-1.675217 7.789759s-0.753848 3.852999-1.088892 5.779499l-1.256412 8.376086c0 1.842739-0.586326 3.769239-0.837609 5.695738l-1.00513 8.376086c0 1.842739 0 3.601717-0.502565 5.444455S0.837609 683.823627 0.670087 686.839018v18.427389c0 106.292526 53.690709 192.649969 136.111391 237.713309l87.530094 47.576166c-82.420682-44.812058-136.362673-131.420783-136.111391-237.713309v-18.427389c0-3.099152 0.418804-6.198303 0.670087-9.297455 0-1.758978 0.418804-3.601717 0.586326-5.360694s0.586326-5.611977 1.00513-8.376086l0.753848-5.695738c0-2.680347 0.837609-5.360695 1.340174-8.376086s0.670087-3.852999 1.088891-5.779499 1.00513-5.276934 1.591456-7.87352 0.837609-3.852999 1.340174-5.695738 1.256413-5.193173 1.9265-7.78976l1.507695-5.611977c0.753848-2.680347 1.591456-5.276934 2.345304-8.376086s1.088891-3.517956 1.675217-5.276934 1.842739-5.528216 2.847869-8.376086 1.00513-3.015391 1.591456-4.523086c2.680347-7.370955 5.695738-14.65815 8.878651-21.861583 0-0.670087 0.586326-1.340174 0.92137-2.094022 3.266673-7.035912 6.700868-14.071824 10.386346-20.940213l1.172652-2.345304q4.606847-8.376086 9.80002-16.752172l2.01026-3.266673c3.434195-5.528216 7.035912-10.972672 10.72139-16.752171l1.591456-2.261543c3.434195-4.85813 7.035912-9.632498 10.637629-14.239346l1.758978-2.261543c3.93676-4.94189 7.957281-9.80002 12.145324-14.574389l2.596586-2.93163c4.355565-4.85813 8.878651-9.716259 13.485498-14.406867l1.675217-1.675217c4.523086-4.523086 9.129933-8.962412 13.904302-13.234215l1.675218-1.507696c5.528216-5.025651 11.223955-9.80002 16.752171-14.406867l2.261543-1.9265c5.779499-4.439325 11.642759-8.79489 17.58978-12.982932l3.434195-2.345304 7.957281-5.276934 4.271804-2.764108q4.85813-3.099152 10.051302-6.030782l2.429065-1.507695c4.188043-2.429065 8.376086-4.690608 12.73165-6.952151l3.601717-1.842739 9.381216-4.690608 10.218824-4.690608c0.586326-8.376086 1.507695-16.752171 2.680348-25.128257 0-1.675217 0.418804-3.266673 0.670087-4.94189 1.172652-8.376086 2.680347-15.998323 4.355564-23.871844 0-1.507695 0.670087-2.93163 1.00513-4.355565 1.675217-7.538477 3.517956-15.076954 5.695739-22.447909l0.670086-2.429065c2.261543-7.87352 4.85813-15.579519 7.622238-23.285518l1.758978-4.690608c3.015391-8.376086 6.198303-15.998323 9.71626-23.871844l1.758977-3.769238c3.685478-8.376086 7.622238-16.165845 11.894042-24.039366v-0.670087c3.434195-6.449586 7.119673-12.73165 10.888911-18.929953l3.015391-4.85813c3.93676-6.365825 8.376086-12.647889 12.312846-18.762432q6.030782-8.376086 12.564128-16.752171c1.172652-1.507695 2.429065-3.015391 3.601717-4.606847 3.685478-4.523086 7.454716-9.046172 11.223955-13.485498l2.764108-3.099151q7.035912-8.376086 14.574389-15.57952c1.172652-1.256413 2.429065-2.429065 3.685478-3.685477 4.104282-4.020521 8.376086-8.376086 12.480367-11.894042l3.769239-3.517956c5.695738-5.025651 11.475237-9.883781 17.422258-14.658149l3.601716-2.84787c5.360695-4.104282 10.80515-8.376086 16.752172-12.061563 1.088891-0.837609 2.177782-1.675217 3.350434-2.429065l5.779499-3.852999c2.596587-1.675217 5.193173-3.434195 7.78976-5.025651l6.198303-3.769239c2.596587-1.507695 5.109412-3.099152 7.789759-4.523086l6.365826-3.601717 7.87352-4.188043 6.617108-3.266673 6.86839-3.266673c7.035912-3.266673 14.071824-6.282064 21.191496-9.129934l3.769239-1.340173c6.617108-2.512826 13.234215-4.774369 19.935084-6.868391l3.601716-1.172652c7.370955-2.177782 14.825671-4.104282 22.364149-5.86326l4.94189-1.088891c7.78976-1.591456 15.579519-3.099152 23.45304-4.188042s14.993193-1.758978 22.364149-2.345304h4.690607c7.622238 0.418804 14.741911 0.167522 21.861584 0.251282z" fill="#3F59F5" p-id="1338"></path><path d="M647.387655 50.759079c131.588305-18.59491 245.586829 45.398384 300.115147 153.784931 185.446535-14.490628 332.195554 125.641284 331.860511 322.395534-0.418804 204.54401-150.769541 391.41448-335.797271 417.380345L385.299937 1022.887572c-166.181538 13.904302-297.686082-104.030983-297.351038-269.961238 0-140.718238 95.152332-272.892868 225.232941-330.017773C325.662208 239.472287 470.484728 75.38477 647.387655 50.759079z" fill="#3FA9F5" p-id="1339"></path><path d="M330.436576 773.866548l-0.418804 248.685981c6.952151 0.670087 14.071824 1.088891 21.191497 1.256412V776.379373l224.479094-312.344231a20.186366 20.186366 0 0 0 3.350434-11.056433l0.586326-384.881133v-0.586326q-10.72139 3.769239-21.107736 8.376085l-0.586326 374.578548-224.060289 312.427992a19.181236 19.181236 0 0 0-3.434196 10.972673zM207.056836 693.204843L413.862389 460.684707a12.982933 12.982933 0 0 0 3.099152-8.376085l0.502565-273.479195c-6.784629 7.622238-13.317976 15.495758-19.51628 23.620562l-0.502565 247.932133-206.638031 232.771419a12.312846 12.312846 0 0 0-3.266674 8.376085l-0.502565 275.154412c6.282064 4.94189 12.73165 9.632498 19.51628 13.988063zM735.587836 423.74617a19.432519 19.432519 0 0 0 3.350435 10.888911l224.14405 309.915167v196.084164c7.119673-1.507695 14.155585-3.182913 21.191497-5.109413v-193.487577a18.929953 18.929953 0 0 0-3.434196-10.888911l-224.060289-309.915167-0.670087-366.788788c-6.952151-1.507695-13.988063-2.764108-21.107736-3.852999zM1154.894681 509.349765a13.569259 13.569259 0 0 0 3.434195 8.87865L1264.788924 637.755157c2.177782-8.376086 4.020521-16.249606 5.779499-24.45817l-94.482246-106.041244V279.593737a320.301513 320.301513 0 0 0-21.191496-17.422258zM667.071456 48.581296c-6.533347 0.586326-13.066694 1.256413-19.683801 2.177783-2.847869 0-5.695738 0.921369-8.376085 1.423934l23.788083 931.672 28.143647-4.020521zM933.514739 179.834558v262.925326a17.841062 17.841062 0 0 0 3.350434 10.302585l224.14405 290.817692v80.745465Q1172.651982 812.480302 1182.703285 799.999935v-58.6326a16.752171 16.752171 0 0 0-3.434195-10.218824L954.873757 440.330819V204.208967h-7.203434c-4.439325-8.208564-9.129933-16.417128-14.155584-24.374409z" fill="#4EB5F4" p-id="1340"></path><path d="M1298.712071 597.96875h1.591456c2.764108 0 5.528216 0 8.376085 0.753848h1.005131c2.596587 0 5.276934 0.837609 7.87352 1.340174h0.753848c2.596587 0.502565 5.109412 1.172652 7.622238 1.842738l2.094021 0.670087c2.345304 0.670087 4.690608 1.423935 6.952151 2.261543h0.753848c2.512826 0.921369 4.94189 1.9265 7.370955 3.015391l1.842739 0.837609c2.345304 1.088891 4.690608 2.177782 6.952151 3.434195L1315.045437 593.02686l-4.523086-2.261543-2.345304-1.088892-1.926499-0.921369c-2.429065-1.088891-4.85813-2.094021-7.370956-3.015391h-0.753847c-2.261543-0.837609-4.606847-1.591456-6.952152-2.261543l-2.094021-0.586326-1.9265-0.586326-5.611977-1.340174h-0.837609c-2.596587-0.586326-5.193173-1.00513-7.87352-1.423934h-1.00513c-2.680347 0-5.444456-0.670087-8.376086-0.837609h-20.270127l36.435972 19.851323H1289.917181c3.266673-0.837609 6.030782-0.753848 8.79489-0.586326zM1175.248569 532.886565h1.507695l8.376086 0.418804h1.340174c2.847869 0 5.695738 0.670087 8.376085 1.088892h1.842739c2.764108 0.502565 5.611977 1.088891 8.376086 1.842738 2.596587 0.753848 5.193173 1.507695 7.789759 2.429065l1.675217 0.502565c2.596587 0.921369 5.109412 1.9265 7.622238 3.015391l1.340174 0.670087c2.512826 1.088891 5.025651 2.345304 7.454716 3.685478L1194.597327 527.693392l-4.188043-2.177782-3.266674-1.507696-1.340173-0.586326c-2.512826-1.088891-5.025651-2.094021-7.622238-3.01539l-1.675217-0.586326c-2.512826-0.837609-5.109412-1.675217-7.78976-2.345304h-0.418804c-2.680347-0.670087-5.444456-1.256413-8.376086-1.758978h-1.842739c-2.764108-0.502565-5.611977-0.921369-8.376085-1.172652h-1.340174c-2.596587 0-5.276934-0.418804-8.376085-0.418805H1128.34249c-3.099152 0-6.198303 0.502565-9.297455 1.005131a94.398485 94.398485 0 0 0-9.71626 1.758978l-2.094021 0.418804c-3.099152 0.753848-6.282064 1.507695-9.297455 2.429065l-1.507695 0.502565c-2.764108 0.837609-5.528216 1.842739-8.376086 2.847869l-1.591456 0.586326q-4.355565 1.758978-8.79489 3.769239h-0.837609l-2.01026 1.00513-2.764109 1.423934-3.266673 1.758978-2.680347 1.423935-3.266674 1.9265-2.512825 1.507695-3.266674 2.177782-2.429065 1.591456h-0.502565l-0.921369 0.670087q-3.350434 2.429065-6.784629 5.025652l-1.507696 1.172652c-2.512826 1.9265-4.85813 4.020521-7.203433 6.114542h-0.586326l-1.005131 1.00513-5.276934 4.941891-1.507695 1.507695c-2.094021 2.177782-4.104282 4.271804-6.030782 6.533347l-0.837608 1.00513c-1.591456 1.758978-3.099152 3.685478-4.606847 5.528217l-1.591457 1.9265c-1.758978 2.345304-3.517956 4.606847-5.109412 6.952151-1.758978 2.512826-3.517956 5.109412-5.109412 7.789759l-1.256413 2.010261c-1.591456 2.596587-3.099152 5.193173-4.523086 7.87352-1.758978 3.266673-3.434195 6.617108-4.941891 10.051303l-0.753847 1.591456c-1.423935 3.266673-2.764108 6.533347-4.020521 9.883781l-0.418805 0.92137a7.78976 7.78976 0 0 1 0 1.088891c-1.172652 3.182913-2.261543 6.365825-3.182912 9.632498v1.00513c-0.921369 3.099152-1.675217 6.198303-2.429065 9.381216a13.401737 13.401737 0 0 1 0 1.758978c-0.670087 3.350434-1.256413 6.617108-1.758978 9.967542v2.094021c-0.502565 3.434195-0.921369 6.86839-1.172652 10.386347l-3.601717 1.675217h-0.586326l-3.93676 2.01026-1.507695 0.753848c-1.842739 0.921369-3.601717 1.842739-5.276934 2.847869l-1.088891 0.670087c-1.340174 0.753848-2.764108 1.591456-4.104282 2.512826l-1.842739 1.172652-3.266674 2.177782-0.753847 0.502565-0.670087 0.502565c-2.512826 1.675217-4.94189 3.517956-7.287195 5.360695l-1.00513 0.753848c-2.429065 1.9265-4.774369 3.93676-7.119673 6.030781l-0.502565 0.502565c-2.010261 1.758978-3.93676 3.601717-5.779499 5.444456l-0.753847 0.753848c-1.9265 1.9265-3.769239 3.93676-5.528217 5.94702l-0.586326 0.670087-0.502565 0.586326c-1.758978 1.9265-3.434195 4.020521-5.109412 6.030782a8.376086 8.376086 0 0 1-0.670087 0.921369c-1.507695 2.010261-3.015391 3.93676-4.439325 5.947021l-0.502566 0.670087c-1.591456 2.261543-3.015391 4.523086-4.523086 6.86839l-0.837608 1.340174c-1.340174 2.261543-2.764108 4.606847-4.020521 6.952151v0.586326c-1.507695 2.847869-3.015391 5.779499-4.355565 8.376085v0.92137c-1.340174 2.93163-2.596587 6.030782-3.685478 9.046172l-0.502565 1.675217c0 1.088891-0.837609 2.261543-1.172652 3.434195l-0.753847 2.177783c0 1.088891-0.586326 2.177782-0.92137 3.266673s0 1.591456-0.670087 2.345304l-0.753847 3.266673a23.955605 23.955605 0 0 0-0.586326 2.345304c0 1.088891-0.418804 2.177782-0.670087 3.266674a24.541931 24.541931 0 0 0-0.418805 2.429065c0 1.088891 0 2.177782-0.586326 3.266673s0 1.591456 0 2.429065V803.769173a109.810482 109.810482 0 0 0 56.622339 98.921571l36.435972 19.851323a109.64296 109.64296 0 0 1-56.622338-99.005332v-5.779499V809.799955v-3.517956-2.345304l0.502565-3.350434 0.502565-2.345304c0-1.088891 0-2.177782 0.670087-3.266674l0.502565-2.429065c0-1.088891 0.586326-2.177782 0.837609-3.182912s0.418804-1.591456 0.670086-2.345304 0.586326-2.261543 0.92137-3.350434a16.752171 16.752171 0 0 0 0.670087-2.177783l1.256413-3.434195 0.586326-1.842739c1.172652-3.099152 2.429065-6.114542 3.769238-9.129933v-0.837608c1.340174-2.93163 2.764108-5.86326 4.355565-8.376086l0.502565-1.00513q1.9265-3.517956 4.020521-7.035912l0.837608-1.340174c1.423935-2.261543 2.93163-4.606847 4.523087-6.784629a3.685478 3.685478 0 0 1 0.670086-0.92137c1.423935-2.010261 2.847869-4.020521 4.355565-5.94702l0.753848-0.92137c1.591456-2.094021 3.350434-4.104282 5.025651-6.114542l1.088891-1.172652c1.842739-2.094021 3.685478-4.104282 5.611977-6.030782l0.753848-0.670087q2.764108-2.847869 5.779499-5.528216l0.670087-0.586326c2.261543-2.094021 4.690608-4.104282 7.119673-6.030782l0.921369-0.753847c2.429065-1.9265 4.85813-3.685478 7.370956-5.444456l1.423934-1.00513 3.266673-2.177783 1.758978-1.172652 4.188043-2.512825 1.00513-0.586326c1.758978-1.00513 3.517956-2.010261 5.360695-2.93163l1.507696-0.753848 3.852999-1.9265 4.271804-1.926499c0-3.517956 0.670087-7.035912 1.088891-10.470107v-2.094022c0.502565-3.266673 1.088891-6.617108 1.758978-9.883781a18.846193 18.846193 0 0 0 0-1.842739c0.753848-3.099152 1.507695-6.282064 2.429065-9.297455v-1.00513c0.921369-3.266673 2.010261-6.533347 3.182912-9.716259a18.846193 18.846193 0 0 0 0.670087-2.010261c1.256413-3.266673 2.596587-6.617108 4.104282-9.883781l0.753848-1.591456c1.507695-3.350434 3.182913-6.700868 4.94189-9.967542 1.507695-2.596587 3.015391-5.276934 4.606847-7.87352 0-0.670087 0.753848-1.340174 1.172652-2.010261 1.675217-2.596587 3.350434-5.193173 5.193173-7.789759 1.675217-2.345304 3.434195-4.690608 5.193173-6.952151l1.507696-1.9265c1.507695-1.9265 3.099152-3.769239 4.690608-5.611977l1.172652-1.340174c1.9265-2.177782 3.93676-4.355565 6.030781-6.449586l1.507696-1.507695 5.276934-5.025652 1.507695-1.423934c2.345304-2.094021 4.774369-4.104282 7.287194-6.114543l1.507696-1.172652c2.177782-1.675217 4.523086-3.434195 6.784629-5.025651l1.423935-1.00513 2.429065-1.591457 3.182912-2.094021 2.596587-1.591456 3.266673-1.842739 2.680347-1.507696 3.182913-1.758978 2.764108-1.340173 2.93163-1.423935q4.271804-2.010261 8.79489-3.769238l1.591456-0.586326c2.680347-1.00513 5.444456-1.9265 8.376086-2.847869h1.507695c3.015391-0.921369 6.114542-1.758978 9.297455-2.429065l2.010261-0.502565q4.85813-1.00513 9.80002-1.758978c3.099152-0.418804 6.198303-0.753848 9.297455-0.92137h1.9265c0.921369 1.256413 4.188043 1.172652 6.784629 1.256413z" fill="#DDDDDD" p-id="1341"></path><path d="M1155.145964 534.142978a117.935285 117.935285 0 0 1 124.887436 64.077055c77.227509-6.114542 138.289173 52.099252 138.121651 134.017369 0 85.10103-62.736881 162.831104-139.713108 173.720015l-232.603896 32.666734c-69.102706 5.779499-123.882306-43.304362-123.714785-112.407069 0-58.632599 39.618885-113.579721 93.728398-137.284042 5.360695-76.222379 65.668511-144.487476 139.294304-154.790062z" fill="#FFFFFF" p-id="1342"></path><path d="M196.167924 668.41163a30.656473 30.656473 0 0 1 34.760756 32.750495 43.136841 43.136841 0 0 1-34.928277 42.550514 30.656473 30.656473 0 0 1-34.844516-32.666733 43.220602 43.220602 0 0 1 35.012037-42.634276zM402.052108 412.270933a30.823995 30.823995 0 0 1 34.844516 32.834255 43.304362 43.304362 0 0 1-34.928277 42.550515 30.823995 30.823995 0 0 1-34.928277-32.750495A43.471884 43.471884 0 0 1 402.052108 412.270933z" fill="#97D7F7" p-id="1343"></path><path d="M409.590585 412.270933a30.823995 30.823995 0 0 1 34.844516 32.834255 43.304362 43.304362 0 0 1-34.928277 42.550515 30.823995 30.823995 0 0 1-34.928276-32.750495 43.471884 43.471884 0 0 1 35.012037-42.634275zM566.474668 412.270933a30.823995 30.823995 0 0 1 34.844516 32.834255 43.388123 43.388123 0 0 1-35.012037 42.550515 30.740234 30.740234 0 0 1-34.844516-32.750495 43.304362 43.304362 0 0 1 35.012037-42.634275zM351.29303 740.697249a30.823995 30.823995 0 0 1 34.844516 32.834255 43.471884 43.471884 0 0 1-35.012038 42.550515 30.823995 30.823995 0 0 1-34.844516-32.750495 43.220602 43.220602 0 0 1 35.012038-42.634275zM673.856086 771.605004A30.823995 30.823995 0 0 1 708.700602 804.104217a43.471884 43.471884 0 0 1-35.012038 42.550514 30.823995 30.823995 0 0 1-34.844516-32.750494 43.220602 43.220602 0 0 1 35.012038-42.299233zM661.710761 224.479094a30.740234 30.740234 0 0 1 34.760756 32.834255A43.220602 43.220602 0 0 1 661.710761 299.863864a30.656473 30.656473 0 0 1-34.844516-32.750495A43.304362 43.304362 0 0 1 661.710761 224.479094zM748.738291 388.147806a30.823995 30.823995 0 0 1 34.844516 32.834256 43.220602 43.220602 0 0 1-34.928277 42.550514 30.823995 30.823995 0 0 1-34.928277-32.750494 43.471884 43.471884 0 0 1 35.012038-42.634276zM957.1353 412.270933a30.740234 30.740234 0 0 1 34.760755 32.834255 43.220602 43.220602 0 0 1-34.928277 42.550515 30.740234 30.740234 0 0 1-34.844516-32.750495 43.304362 43.304362 0 0 1 35.012038-42.634275z" fill="#97D7F7" p-id="1344"></path></svg>